#!OML:ASF Y:\EmotionMaleHayes\Project 1\Capture day 1\Session 1\Male1.ASF
:FULLY-SPECIFIED
:DEGREES
490
root -19.0893 17.0247 -12.7843 183.379 73.0299 177.527
lowerback 8.4775 1.62971 -2.76657
upperback 6.77673 2.36306 -1.4216
thorax 2.23708 1.26189 -0.0637291
lowerneck -21.9861 -2.37759 -1.36058
upperneck 25.1864 -4.13337 5.29967
head 12.1082 -1.13692 1.55943
rclavicle 2.0276e-014 -2.34566e-014
rhumerus 42.8226 16.4338 -34.0873
rradius 36.8053
rwrist -3.43453
rhand -5.11151 -33.0328
rfingers 7.12502
rthumb 20.6863 -61.9504
lclavicle 2.0276e-014 -2.34566e-014
lhumerus 46.453 -12.1208 23.9139
lradius 38.9779
lwrist 9.07931
lhand -15.0834 -23.4103
lfingers 7.12502
lthumb 11.0843 6.27696
rfemur 11.99 0.107462 8.66068
rtibia 3.43387
rfoot -17.5263 -1.05244
rtoes -6.76405
lfemur -16.7886 2.9888 -11.8833
ltibia 16.1334
lfoot -6.03159 12.8476
ltoes -10.6432
491
root -19.0241 17.0562 -12.8749 184.087 73.6565 178.335
lowerback 8.46775 1.73354 -2.62194
upperback 6.88031 2.52388 -1.59036
thorax 2.36167 1.35345 -0.32626
lowerneck -22.0167 -2.31926 -1.32224
upperneck 25.0955 -4.09681 5.41376
head 12.08 -1.10411 1.60063
rclavicle -2.94201e-014 2.46493e-014
rhumerus 42.6628 16.415 -34.4939
rradius 36.5444
rwrist -3.11254
rhand -4.8641 -33.0852
rfingers 7.12502
rthumb 20.924 -61.9767
lclavicle -2.94201e-014 2.46493e-014
lhumerus 46.477 -12.2538 23.7794
lradius 39.0344
lwrist 8.94808
lhand -15.0583 -23.4322
lfingers 7.12502
lthumb 11.1085 6.25383
rfemur 11.796 0.14226 8.66749
rtibia 4.1692
rfoot -17.0262 -0.941754
rtoes -4.79129
lfemur -16.2026 3.34103 -11.8027
ltibia 16.1356
lfoot -6.51872 12.9986
ltoes -10.3391
492
root -18.9572 17.0879 -12.9635 185.855 74.1587 180.244
lowerback 8.58934 1.83329 -2.47438
upperback 6.89624 2.65635 -1.43061
thorax 2.30766 1.42096 -0.256743
lowerneck -22.1739 -2.32495 -1.47098
upperneck 25.199 -4.04603 5.36465
head 12.1507 -1.09969 1.6164
rclavicle -3.63776e-014 -8.34896e-015
rhumerus 42.5027 16.5368 -34.5891
rradius 36.3321
rwrist -2.83145
rhand -4.63718 -33.0033
rfingers 7.12502
rthumb 21.142 -61.8706
lclavicle -3.63776e-014 -8.34896e-015
lhumerus 46.2598 -12.4071 24.0258
lradius 39.0852
lwrist 8.74732
lhand -14.7869 -23.3436
lfingers 7.12502
lthumb 11.3703 6.32819
rfemur 11.5613 -0.0977336 8.9924
rtibia 5.00775
rfoot -16.5503 -0.910405
rtoes -6.23016
lfemur -15.6252 3.49528 -11.3767
ltibia 16.1717
lfoot -7.10868 13.1952
ltoes -9.79792
493
root -18.8896 17.1193 -13.0514 186.829 74.7017 181.238
lowerback 8.55122 1.92215 -2.44068
upperback 6.91089 2.77862 -1.48943
thorax 2.34698 1.48418 -0.342346
lowerneck -22.3426 -2.34341 -1.48706
upperneck 25.283 -4.08007 5.38739
head 12.2197 -1.10957 1.62254
rclavicle 2.38542e-015 2.14687e-014
rhumerus 42.1928 16.6233 -34.8423
rradius 36.3306
rwrist -2.51534
rhand -4.46713 -32.9928
rfingers 7.12502
rthumb 21.3053 -61.8417
lclavicle 2.38542e-015 2.14687e-014
lhumerus 46.1327 -12.5265 23.9831
lradius 39.1062
lwrist 8.48821
lhand -14.222 -23.3167
lfingers 7.12502
lthumb 11.915 6.32422
rfemur 11.2149 -0.348084 8.96246
rtibia 5.78998
rfoot -16.0153 -0.855805
rtoes -8.23904
lfemur -15.0462 3.63002 -11.293
ltibia 16.0654
lfoot -7.66896 13.3587
ltoes -8.54162
494
root -18.8237 17.1531 -13.1382 187.892 75.4751 182.323
lowerback 8.46441 2.11581 -2.50781
upperback 6.95946 3.03761 -1.51658
thorax 2.44175 1.61107 -0.344749
lowerneck -22.4704 -2.33396 -1.49317
upperneck 25.2552 -4.06567 5.37521
head 12.2332 -1.10618 1.62013
rclavicle -1.78906e-014 -2.06736e-014
rhumerus 42.0062 16.7525 -34.7915
rradius 36.3226
rwrist -2.23472
rhand -4.25626 -32.9613
rfingers 7.12502
rthumb 21.5079 -61.7872
lclavicle -1.78906e-014 -2.06736e-014
lhumerus 46.1042 -12.6215 23.9415
lradius 39.1129
lwrist 8.17969
lhand -13.8535 -23.2521
lfingers 7.12502
lthumb 12.2704 6.36788
rfemur 10.692 -0.316607 8.95238
rtibia 6.75308
rfoot -15.5267 -0.881168
rtoes -9.14641
lfemur -14.3764 3.96177 -11.1795
ltibia 15.8319
lfoot -8.09779 13.6458
ltoes -7.51144
495
root -18.7818 17.1736 -13.2444 190.42 76.4573 184.445
lowerback 8.10724 2.35061 -1.99912
upperback 6.82196 3.37127 -1.64632
thorax 2.52408 1.79221 -0.768937
lowerneck -22.5203 -2.27186 -1.32924
upperneck 25.1743 -4.00823 5.27235
head 12.2025 -1.08143 1.5615
rclavicle 3.63776e-014 -2.8625e-014
rhumerus 41.8949 16.9422 -34.6774
rradius 36.1788
rwrist -2.25118
rhand -4.28312 -32.9978
rfingers 7.12502
rthumb 21.4821 -61.8266
lclavicle 3.63776e-014 -2.8625e-014
lhumerus 46.1211 -12.8014 23.7164
lradius 39.1715
lwrist 8.03359
lhand -13.5532 -23.2123
lfingers 7.12502
lthumb 12.5599 6.39022
rfemur 9.115 -0.972483 8.74966
rtibia 8.50337
rfoot -14.9668 -0.117298
rtoes -8.87379
lfemur -14.3869 4.25341 -10.9714
ltibia 15.7368
lfoot -8.55777 14.3699
ltoes -6.75177
496
root -18.7206 17.2028 -13.3302 191.384 76.9604 185.378
lowerback 8.09693 2.458 -1.91177
upperback 6.79549 3.51993 -1.80318
thorax 2.51748 1.87343 -0.988076
lowerneck -22.5657 -2.20355 -1.00872
upperneck 25.1107 -3.96292 5.04479
head 12.1718 -1.06323 1.42757
rclavicle -3.65764e-014 -1.11319e-014
rhumerus 41.7199 17.0463 -34.7029
rradius 35.9745
rwrist -2.29597
rhand -4.48499 -32.8461
rfingers 7.12502
rthumb 21.2882 -61.6969
lclavicle -3.65764e-014 -1.11319e-014
lhumerus 46.1616 -12.9719 23.5101
lradius 39.1476
lwrist 7.75198
lhand -13.1648 -23.4194
lfingers 7.12502
lthumb 12.9343 6.15973
rfemur 8.55102 -1.21564 8.63011
rtibia 9.564
rfoot -14.5259 -0.192869
rtoes -6.97655
lfemur -13.8497 4.31659 -10.9854
ltibia 15.4072
lfoot -8.84026 14.7404
ltoes -6.62645
497
root -18.6389 17.2448 -13.3947 190.829 77.0296 185.365
lowerback 8.55104 2.42824 -2.29243
upperback 6.97618 3.47049 -1.84999
thorax 2.44094 1.84548 -0.83965
lowerneck -22.647 -2.18655 -0.799428
upperneck 25.0395 -3.96079 4.84466
head 12.1499 -1.07204 1.31521
rclavicle -5.88403e-014 1.82882e-014
rhumerus 41.4167 16.9434 -35.0062
rradius 36.016
rwrist -1.73418
rhand -4.18551 -32.7112
rfingers 7.12502
rthumb 21.5758 -61.5293
lclavicle -5.88403e-014 1.82882e-014
lhumerus 46.109 -13.0549 23.3865
lradius 39.1413
lwrist 7.42311
lhand -12.9512 -23.5062
lfingers 7.12502
lthumb 13.1402 6.05981
rfemur 9.21243 -0.93299 8.72594
rtibia 9.92231
rfoot -14.2309 -1.12481
rtoes -4.21238
lfemur -12.5794 4.36278 -11.0857
ltibia 14.9396
lfoot -8.82413 14.6477
ltoes -7.90646
498
root -18.5833 17.2618 -13.4723 192.011 77.6319 186.398
lowerback 8.37203 2.53902 -2.36367
upperback 6.93656 3.61493 -1.9373
thorax 2.49961 1.91428 -0.891098
lowerneck -22.6963 -2.16517 -0.738745
upperneck 24.9447 -3.95501 4.84703
head 12.1213 -1.06653 1.30518
rclavicle -4.77083e-014 2.70347e-014
rhumerus 41.2028 16.9056 -35.2366
rradius 36.1522
rwrist -1.32522
rhand -3.88351 -33.1767
rfingers 7.12502
rthumb 21.8658 -61.9612
lclavicle -4.77083e-014 2.70347e-014
lhumerus 46.0413 -13.1373 23.1128
lradius 39.21
lwrist 7.38713
lhand -12.8435 -23.4209
lfingers 7.12502
lthumb 13.2441 6.13835
rfemur 8.44832 -1.25157 8.56813
rtibia 11.0271
rfoot -13.7613 -1.13455
rtoes -3.06064
lfemur -12.2729 4.7167 -11.1096
ltibia 14.7632
lfoot -8.94204 14.8993
ltoes -9.18511
499
root -18.5241 17.2788 -13.5482 193.552 78.1583 187.828
lowerback 8.17385 2.63561 -2.3881
upperback 6.9159 3.74422 -1.96727
thorax 2.58753 1.9756 -0.906227
lowerneck -22.7544 -2.11579 -0.821688
upperneck 24.8964 -3.90589 5.0193
head 12.1188 -1.03026 1.3917
rclavicle 2.18663e-014 -1.27222e-014
rhumerus 41.2285 17.0675 -35.0615
rradius 36.1799
rwrist -1.53912
rhand -3.87974 -33.4948
rfingers 7.12502
rthumb 21.8694 -62.2789
lclavicle 2.18663e-014 -1.27222e-014
lhumerus 45.9869 -13.2171 22.8531
lradius 39.2303
lwrist 7.34605
lhand -12.8401 -23.3583
lfingers 7.12502
lthumb 13.2473 6.20077
rfemur 7.80444 -1.81816 8.45871
rtibia 11.973
rfoot -13.1642 -1.07034
rtoes -2.77697
lfemur -11.9256 4.95515 -11.022
ltibia 14.6012
lfoot -9.20787 15.1012
ltoes -8.97712
500
root -18.4623 17.2963 -13.6225 194.978 78.5394 189.293
lowerback 8.10254 2.69139 -2.44198
upperback 6.95884 3.81945 -1.93445
thorax 2.66645 2.00959 -0.841627
lowerneck -22.8861 -2.08958 -0.882769
upperneck 24.8827 -3.84704 5.00083
head 12.1376 -1.01313 1.40398
rclavicle -2.38542e-014 1.59028e-014
rhumerus 41.2556 17.1396 -34.884
rradius 36.2865
rwrist -1.71277
rhand -3.83427 -33.2122
rfingers 7.12502
rthumb 21.9131 -61.9912
lclavicle -2.38542e-014 1.59028e-014
lhumerus 45.8945 -13.171 22.8537
lradius 39.1462
lwrist 7.02864
lhand -12.9055 -23.3456
lfingers 7.12502
lthumb 13.1843 6.21749
rfemur 7.35398 -2.41153 8.40677
rtibia 12.9616
rfoot -12.6041 -1.1817
rtoes -1.67451
lfemur -11.43 4.97931 -10.9342
ltibia 14.4614
lfoot -9.5463 15.3302
ltoes -7.94409
